<svg width="104" height="104" viewBox="0 0 104 104" fill="none" xmlns="http://www.w3.org/2000/svg">
<path d="M9.74918 0.914206C5.5341 1.70587 1.66137 5.66419 0.891099 9.94346C0.570154 11.6766 0.570154 35.8544 0.891099 37.5875C1.68276 42.0166 5.61969 45.9107 10.0701 46.6596C11.033 46.8093 16.703 46.8735 28.0858 46.8307C44.4754 46.7665 44.7108 46.7665 45.2885 46.3172C45.6094 46.0819 46.0802 45.6111 46.3155 45.2902C46.7648 44.7125 46.7648 44.4771 46.829 28.0875C46.8718 16.7047 46.8076 11.0347 46.6579 10.0718C45.909 5.6214 42.0148 1.68447 37.5858 0.89281C35.9811 0.593261 11.2897 0.614658 9.74918 0.914206ZM36.9011 7.76103C38.0351 8.10337 39.4259 9.49413 39.7682 10.6281C39.9608 11.2914 40.025 15.1 40.025 25.7767V40.0267H25.775C15.0983 40.0267 11.2897 39.9625 10.6264 39.7699C9.49242 39.4276 8.10166 38.0368 7.75932 36.9028C7.39558 35.6405 7.39558 11.8905 7.75932 10.6281C8.08027 9.55832 9.47103 8.10337 10.4981 7.78243C11.6107 7.44009 35.7243 7.41869 36.9011 7.76103Z" fill="white"/>
<path d="M66.2355 0.914283C61.9777 1.70595 58.1049 5.70706 57.3561 10.0719C57.2063 11.0348 57.1421 16.6834 57.1849 28.0662L57.2491 44.6698L57.8696 45.4615C58.9822 46.9378 58.1477 46.8736 76.356 46.8736C87.1612 46.8736 93.2377 46.788 94.0722 46.6383C98.437 45.8466 102.331 41.9525 103.123 37.5876C103.273 36.7745 103.358 31.7892 103.358 23.7656C103.358 15.7419 103.273 10.7566 103.123 9.94354C102.331 5.57869 98.437 1.68455 94.0722 0.892886C92.4674 0.593338 67.7761 0.614734 66.2355 0.914283ZM93.3875 7.76111C94.5215 8.10345 95.9123 9.49422 96.2546 10.6282C96.4472 11.2915 96.5114 14.7149 96.5114 23.8939C96.5114 35.8973 96.49 36.3038 96.062 37.2453C95.4843 38.529 95.0992 38.9356 93.8368 39.5133L92.767 40.0268H78.3887H63.9889V25.7768C63.9889 15.1001 64.0531 11.2915 64.2457 10.6282C64.5666 9.5584 65.9574 8.10345 66.9844 7.78251C68.097 7.44017 92.2107 7.41877 93.3875 7.76111Z" fill="white"/>
<path d="M9.74918 57.4006C5.5341 58.1922 1.66137 62.1505 0.891099 66.4298C0.570154 68.1629 0.570154 92.3408 0.891099 94.0739C1.68276 98.4387 5.5769 102.333 9.94175 103.125C11.6749 103.445 35.8527 103.445 37.5858 103.125C41.9507 102.333 45.8448 98.4387 46.6365 94.0739C46.7862 93.2394 46.8718 87.1629 46.8718 76.3577C46.8718 58.1494 46.936 58.9839 45.4597 57.8713L44.668 57.2508L27.7435 57.2294C17.73 57.208 10.3911 57.2722 9.74918 57.4006ZM40.025 78.369C40.025 92.3836 40.0036 92.7901 39.5757 93.7315C38.998 95.0153 38.6128 95.4218 37.3505 95.9995L36.2806 96.5131H23.8922C14.7131 96.5131 11.2897 96.4489 10.6264 96.2563C9.49243 95.914 8.10166 94.5232 7.75932 93.3892C7.39559 92.1268 7.39559 68.3769 7.75932 67.1145C8.08027 66.0447 9.47103 64.5897 10.4981 64.2688C11.0116 64.119 15.7402 64.0334 25.6467 64.012L40.025 63.9906V78.369Z" fill="white"/>
<path d="M59.1747 57.4434C58.3831 57.7857 57.677 58.556 57.3774 59.3476C57.0565 60.1821 57.0565 92.3194 57.3774 94.0739C58.1691 98.4387 62.0632 102.333 66.4281 103.125C68.1612 103.445 92.339 103.445 94.0721 103.125C98.437 102.333 102.331 98.4387 103.123 94.0739C103.444 92.3408 103.444 68.1629 103.123 66.4298C102.331 62.065 98.437 58.1708 94.0721 57.3792C92.0395 57.0154 60.0092 57.0796 59.1747 57.4434ZM93.3875 64.2474C94.5215 64.5897 95.9122 65.9805 96.2546 67.1145C96.4471 67.7778 96.5113 71.2012 96.5113 80.3802C96.5113 92.3836 96.4899 92.7901 96.062 93.7315C95.4843 95.0153 95.0992 95.4218 93.8368 95.9995L92.767 96.5131H80.3785C71.1995 96.5131 67.776 96.4489 67.1128 96.2563C65.9788 95.914 64.588 94.5232 64.2457 93.3892C64.0531 92.7259 63.9889 88.9174 63.9889 78.2406V63.9906H78.2389C88.9156 63.9906 92.7242 64.0548 93.3875 64.2474Z" fill="white"/>
</svg>
