<svg width="149" height="149" viewBox="0 0 149 149" fill="none" xmlns="http://www.w3.org/2000/svg">
<path d="M30.12 0.575742C29.0141 0.895859 28.0247 1.21598 27.9665 1.27418C27.8501 1.39059 32.5936 20.132 32.8846 20.5976C33.0301 20.8304 33.6122 20.7722 35.0963 20.423C36.2022 20.1611 37.2208 19.841 37.3372 19.7246C37.5409 19.55 33.7868 4.00973 32.71 0.430234C32.5354 -0.151797 32.6809 -0.180899 30.12 0.575742Z" fill="white"/>
<path d="M103.369 0.982852C102.35 1.68129 102.176 2.23422 101.419 7.5016C101.012 10.2371 100.546 12.7399 100.4 13.06C99.8766 14.0204 98.7707 14.5442 97.7812 14.3405C97.0246 14.1659 96.268 13.3219 93.5324 9.68422C90.0111 4.96977 89.2254 4.32953 87.7994 4.85336C87.3629 5.02797 85.3549 6.42484 83.3178 7.96723L79.5928 10.761L76.9445 10.5864C69.2617 10.1207 60.8805 11.925 53.6342 15.5918C49.007 17.92 45.4566 20.51 41.7607 24.235C34.0488 31.9469 29.5381 41.2303 28.1703 52.0561C27.8502 54.7916 27.792 54.9371 27.1227 54.9371C26.7443 54.9371 26.075 55.2864 25.6385 55.7229C24.9691 56.4213 24.7072 57.178 24.0088 60.6701C23.5432 62.9692 23.0484 64.8317 22.9029 64.8317C22.7865 64.8317 21.1568 63.7549 19.2652 62.4453C14.3762 59.0114 14.7545 58.9241 9.3125 64.4242C5.6166 68.1201 4.94727 68.935 4.94727 69.6625C4.94727 70.3028 5.6748 71.5832 7.4209 74.1733C8.78867 76.1522 9.89453 77.8401 9.89453 77.9274C9.89453 78.0147 8.03203 78.4803 5.76211 78.9459C2.24082 79.6444 1.48418 79.9063 0.814844 80.5756L0 81.3614V87.0944V92.8274L0.814844 93.6131C1.48418 94.2824 2.24082 94.5444 5.6748 95.2428C7.91562 95.7084 9.80723 96.1158 9.86543 96.174C9.95273 96.2323 8.84687 97.9783 7.45 100.045C5.15098 103.42 4.88906 103.886 5.06367 104.759C5.20918 105.516 6.19863 106.68 9.3998 109.881C14.7836 115.265 14.3762 115.177 19.1779 111.86C21.1859 110.492 22.8738 109.357 22.9902 109.357C23.0775 109.357 23.5432 111.22 24.0088 113.489C24.7072 117.011 24.9691 117.767 25.6385 118.437L26.4242 119.252H32.1572H37.8902L38.676 118.437C39.3453 117.767 39.6072 117.011 40.3057 113.489C40.7713 111.22 41.2369 109.357 41.3242 109.357C41.4406 109.357 43.1285 110.492 45.1365 111.86C49.6473 114.974 49.7928 114.974 52.8484 111.947L54.9437 109.881L55.0602 114.479C55.1475 118.437 55.2639 119.31 55.7877 120.474C56.6025 122.278 57.7084 123.675 58.9307 124.519L59.9201 125.188L60.0074 133.22L60.0947 141.223L60.9096 142.969C61.9572 145.239 63.6742 146.956 65.8859 147.975C67.632 148.761 67.7775 148.79 73.7725 148.877C80.4076 148.993 82.6484 148.731 84.54 147.626C86.2861 146.607 87.8867 144.89 88.7307 143.115C89.4873 141.514 89.4873 141.456 89.5746 133.366L89.691 125.217L90.826 124.403C91.4662 123.966 92.3684 122.977 92.8631 122.22C94.3764 119.834 94.5801 118.611 94.5801 111.976C94.5801 102.344 95.4531 100.336 101.39 96.1158C105.289 93.3512 106.046 92.6528 105.755 92.1289C105.61 91.8961 104.911 91.0231 104.154 90.2373L102.845 88.7531L101.826 89.5971C101.303 90.0627 99.6146 91.3141 98.1305 92.3908C93.8816 95.4174 91.7863 98.0948 90.4477 102.082C89.8947 103.74 89.8074 104.875 89.6619 111.278L89.4873 118.582L88.6725 119.63C87.1301 121.638 87.4502 121.609 74.5582 121.522L63.0049 121.434L62.0445 120.765C60.2111 119.426 60.1238 119.019 59.9201 110.812C59.7455 102.489 59.5127 101.412 57.3592 98.0948C55.9332 95.9121 54.5945 94.6026 51.2187 92.1871C47.6102 89.5971 45.7477 87.9965 43.3031 85.2901C38.2104 79.6735 34.6891 72.4563 33.1467 64.3951C32.5355 61.2813 32.6229 52.5217 33.2922 49.4078C35.9695 36.8942 43.3322 26.7377 54.0125 20.8301C59.6 17.7454 65.333 16.0284 71.9682 15.5045C74.1217 15.3299 74.209 15.359 74.209 15.9411C74.209 16.8141 74.5 17.3088 77.8758 21.8196C80.9896 26.0102 81.4262 27.0287 80.524 28.1928C79.6219 29.3569 79.1271 29.386 73.4814 28.5711C67.5447 27.7272 66.7299 27.7854 66.0896 29.2696C65.5658 30.4045 63.5869 44.7516 63.8197 45.6828C64.1689 46.9924 65.1293 47.3707 70.2803 48.1274C72.9285 48.5057 75.4312 48.9131 75.8387 49.0004C77.3228 49.3787 77.9049 51.5323 76.8863 52.7836C76.6244 53.1328 74.5291 54.7916 72.2883 56.4795C68.1559 59.5643 67.8066 59.9426 67.8066 61.194C67.8066 61.9797 77.0027 74.4934 77.9631 74.9881C79.2145 75.6574 79.9711 75.3373 84.3072 72.1071C86.6645 70.3319 88.9053 68.8186 89.2545 68.7313C90.2148 68.4694 91.4662 68.9932 91.9609 69.8371C92.3393 70.5356 92.3102 71.1467 91.699 75.5119C91.3498 78.1893 91.0879 80.9248 91.1461 81.536C91.2916 83.4567 91.8445 83.6604 99.5564 84.7662C107.647 85.9594 108.898 86.0176 109.713 85.2028C110.411 84.5043 110.44 84.417 111.313 78.3639C111.954 73.824 112.07 73.3584 112.769 72.7473C113.525 72.1071 114.456 71.9324 115.388 72.2817C115.65 72.3981 117.25 74.3188 118.938 76.5887C120.626 78.8295 122.256 80.9248 122.576 81.1867C123.944 82.3799 124.7 82.0307 131.539 76.9088C138 72.0489 138.756 71.2922 138.407 69.9244C138.32 69.5752 136.836 67.4217 135.089 65.0936C133.343 62.7655 131.83 60.6119 131.714 60.2627C131.452 59.4188 131.946 58.2547 132.849 57.6727C133.576 57.2071 133.896 57.2071 139.105 57.9346C144.751 58.7203 145.537 58.7203 146.352 57.7309C146.701 57.3235 148.971 43.1801 149 41.3467C149 40.9975 148.709 40.3573 148.36 39.9498C147.749 39.2514 147.254 39.135 142.045 38.3783C138.582 37.8545 136.283 37.3889 136.021 37.127C135.351 36.4576 135.06 35.0026 135.439 34.2459C135.613 33.8676 137.534 32.2088 139.687 30.5791C144.053 27.2616 144.926 26.4176 144.926 25.3991C144.926 24.9334 143.354 22.5762 140.531 18.793C134.973 11.343 134.915 11.2848 133.547 11.2848C132.616 11.2848 131.83 11.7504 128.134 14.486C125.777 16.2612 123.536 17.7745 123.187 17.8618C122.197 18.1237 120.946 17.367 120.597 16.2903C120.364 15.5336 120.451 14.3114 120.975 10.761C121.79 5.02797 121.79 4.50414 121.004 3.57289C120.364 2.84535 119.928 2.75805 112.478 1.68129C108.171 1.04106 104.475 0.517227 104.329 0.517227C104.154 0.517227 103.718 0.720938 103.369 0.982852ZM116.319 7.32699C116.406 7.3852 116.232 8.92758 115.97 10.761C115.271 15.4463 115.329 16.9887 116.232 18.7639C118.007 22.3143 122.43 23.8567 125.864 22.1397C126.33 21.8778 128.163 20.6555 129.88 19.3459C131.597 18.0655 133.052 17.076 133.111 17.1342C134.275 18.6184 138.582 24.4678 138.669 24.7588C138.756 24.9625 137.592 26.0102 136.021 27.1452C131.423 30.4918 130.317 32.0924 130.317 35.2936C130.288 38.2619 132.034 40.8811 134.682 42.016C135.264 42.2489 137.505 42.7145 139.658 43.0346C141.812 43.3256 143.616 43.6457 143.674 43.6748C143.704 43.733 143.412 45.8575 143.034 48.3893C142.627 50.9502 142.307 53.1328 142.307 53.2201C142.307 53.3074 140.648 53.1328 138.611 52.8418C136.545 52.5217 134.216 52.3471 133.402 52.4053C129.007 52.8418 126.01 56.916 126.883 61.2522C127.145 62.5326 127.727 63.493 129.822 66.3158C131.248 68.2074 132.412 69.8371 132.412 69.8953C132.412 69.9535 130.666 71.3213 128.512 72.9219L124.613 75.8612L122.023 72.4563C118.705 68.091 117.57 67.3053 114.398 67.3053C111.75 67.3344 110.324 67.9455 108.723 69.8371C107.472 71.2922 106.977 72.8637 106.483 76.967C106.279 78.5967 106.046 80.0809 105.93 80.2846C105.755 80.5174 104.533 80.4592 101.012 79.9645C95.5986 79.1787 96.0934 79.7026 96.7627 75.3082C97.4029 71.0594 97.3447 69.5461 96.3844 67.7127C94.9293 64.9481 92.1937 63.4348 89.1672 63.7549C87.2465 63.9586 86.4025 64.3951 82.7066 67.1889L79.651 69.4879L76.799 65.6465C75.1984 63.5512 73.918 61.7178 73.918 61.6305C73.918 61.5141 75.3439 60.3209 77.1191 59.0114C78.8652 57.6727 80.6404 56.1012 81.0478 55.5192C83.4924 51.9688 82.4447 47.0506 78.7488 44.8971C77.7885 44.3442 76.4789 44.0241 73.3068 43.5293C71.0078 43.2092 69.0871 42.8891 69.0289 42.86C68.8834 42.7436 70.193 33.5766 70.3967 33.3438C70.484 33.2274 72.3465 33.402 74.5 33.7221C79.7383 34.4787 81.5717 34.1295 83.7834 31.9178C85.1221 30.5791 85.6168 29.4151 85.7914 27.2616C85.966 24.7879 85.4422 23.6239 82.5029 19.7243C81.2807 18.1237 80.3203 16.6686 80.3785 16.5231C80.4658 16.2903 87.7412 10.7028 88.0031 10.7028C88.0613 10.7028 89.2254 12.2161 90.6223 14.0495C91.99 15.8829 93.6197 17.7162 94.2309 18.0946C97.3156 20.1026 100.953 19.6661 103.66 16.9596C104.969 15.6209 105.464 14.2241 106.075 9.82973C106.337 7.99633 106.599 6.33754 106.657 6.16293C106.715 5.93012 108.2 6.04652 111.488 6.54125C114.078 6.91957 116.261 7.26879 116.319 7.32699ZM29.8 70.6229C30.0619 71.4959 30.2656 72.2526 30.2656 72.2817C30.2656 72.3108 29.5672 72.5145 28.7523 72.6891C22.7865 74.086 18.0139 79.528 17.3154 85.6975C16.7043 90.9067 19.6436 96.8725 24.0961 99.5789C31.1387 103.857 39.84 102.023 44.3799 95.301L45.3111 93.9041L46.1551 94.6026C46.6207 94.9518 47.8721 95.883 48.9197 96.6397C51.2187 98.2403 52.9648 100.161 53.8379 101.994L54.4781 103.333L51.8299 105.981L49.2107 108.6L46.2715 106.622C44.6418 105.516 42.8375 104.497 42.2264 104.352C40.1893 103.828 37.8902 104.934 36.8426 106.971C36.6389 107.407 36.1441 109.241 35.7658 111.016L35.0965 114.304H32.1281H29.1889L28.6941 111.831C27.6465 106.534 26.7734 105.108 24.1543 104.41C22.4664 103.944 21.3314 104.381 17.9848 106.651L15.1037 108.6L12.892 106.36L10.6512 104.148L12.6301 101.238C13.7068 99.6371 14.7254 97.8328 14.8418 97.2217C15.4238 94.7772 13.8523 92.2162 11.3205 91.4887C10.5348 91.2559 8.75957 90.8194 7.4209 90.5574L4.94727 90.0627V87.0944V84.126L8.20664 83.4567C10.0109 83.1074 11.8443 82.6418 12.2518 82.409C14.1434 81.4487 15.3074 78.975 14.8709 77.0252C14.7254 76.4432 13.765 74.668 12.6883 73.1256C11.6406 71.5832 10.7676 70.2155 10.7676 70.099C10.7676 70.0117 11.757 68.935 12.9502 67.7418L15.1037 65.5883L18.1594 67.6836C21.477 69.9244 22.5537 70.3028 24.3289 69.808C26.2787 69.2842 27.6174 67.6545 28.083 65.2682C28.3158 64.1041 28.3158 64.1332 28.8105 66.5778C29.1016 67.9455 29.5381 69.7498 29.8 70.6229ZM33.0594 78.8586C34.7473 82.2053 36.6389 84.9408 39.84 88.6658L41.4406 90.4992L40.7422 91.8088C39.8109 93.584 37.541 95.5338 35.5621 96.2614C34.2234 96.7852 33.4668 96.8725 31.5752 96.7852C27.6756 96.5815 24.94 94.6899 23.223 91.0813C22.4082 89.3643 22.35 89.0733 22.4664 86.716C22.5537 84.9117 22.7865 83.8059 23.2521 82.8455C24.7072 79.7899 28.1121 77.4326 31.1969 77.3744C32.2445 77.3453 32.3318 77.4326 33.0594 78.8586ZM84.6855 129.001V131.474H74.791H64.8965V129.204C64.8965 127.953 64.9838 126.818 65.1002 126.731C65.1875 126.614 69.64 126.527 74.9947 126.527H84.6855V129.001ZM84.6855 138.226C84.6855 140.467 83.9289 142.125 82.4447 143.115C81.3971 143.842 81.2516 143.842 75.1111 143.93C68.0395 144.017 67.5738 143.901 65.9732 141.922C65.333 141.107 65.1002 140.438 64.9838 139.099C64.7219 136.189 63.8488 136.422 74.9365 136.422H84.6855V138.226Z" fill="white"/>
<path d="M102.263 23.9441C96.2388 25.2537 91.2915 29.1533 88.6433 34.6244C87.1009 37.8546 86.6353 39.9208 86.6353 43.4421C86.6644 48.7386 88.5851 53.3076 92.3974 57.149C94.3763 59.1279 95.2202 59.739 97.5192 60.8449C101.099 62.5619 102.787 62.9402 106.657 62.9111C109.247 62.882 110.295 62.7365 112.186 62.1253C117.599 60.3501 121.644 56.7998 124.147 51.6197C127.843 43.966 125.893 34.3624 119.52 28.6003C117.337 26.6214 113.292 24.5261 110.44 23.9441C107.938 23.4203 104.649 23.4203 102.263 23.9441ZM109.8 28.8914C115.067 30.2591 119.258 34.4207 120.655 39.6589C121.965 44.4607 120.393 49.99 116.668 53.715C110.848 59.5353 101.739 59.4771 95.8604 53.6277C90.011 47.7783 90.0692 38.6404 95.9769 32.8492C99.8183 29.0951 104.94 27.6109 109.8 28.8914Z" fill="white"/>
<path d="M7.97364 15.5048C7.24611 16.5525 6.66407 17.4547 6.72228 17.5129C7.76993 18.3277 23.4848 29.4154 23.7176 29.5027C24.0086 29.6191 26.9479 25.8941 26.715 25.6904C26.0457 25.1084 9.74884 13.6132 9.57423 13.6132C9.45782 13.6132 8.73029 14.4572 7.97364 15.5048Z" fill="white"/>
<path d="M54.4782 29.4736C47.552 34.5372 42.6338 42.1618 40.9168 50.5722C38.2104 63.9007 43.6815 77.6658 54.8565 85.6396C56.137 86.5708 59.1635 88.2587 61.5499 89.4228C65.5659 91.3726 66.0897 91.7218 67.8649 93.5843C70.0766 95.9415 71.4735 98.5898 71.9391 101.296C72.492 104.759 72.1719 104.41 74.8784 104.41H77.2938L77.0901 102.431C76.7991 99.7538 76.5663 98.7644 75.6641 96.5527C74.6456 94.0208 73.1032 91.7218 71.0661 89.7429C68.8252 87.5603 67.7776 86.8618 63.7616 84.9702C59.3963 82.9331 57.01 81.3616 54.3327 78.8007C49.4145 74.1445 46.1842 67.6257 45.3694 60.7577C44.2053 50.514 48.687 39.9501 56.8354 33.897C57.9122 33.1113 58.7852 32.3546 58.7852 32.2091C58.7852 32.0054 56.4571 28.164 56.3407 28.164C56.3116 28.164 55.4676 28.746 54.4782 29.4736Z" fill="white"/>
<path d="M12.3099 40.1826C7.15889 41.4921 2.88096 42.6562 2.76455 42.7435C2.58994 42.9472 3.46299 46.7886 3.78311 47.167C3.92862 47.3416 21.3022 43.2382 23.1939 42.5689C23.6304 42.4234 22.4663 37.7671 22.0007 37.7962C21.8261 37.7962 17.4608 38.9021 12.3099 40.1826Z" fill="white"/>
<path d="M121.936 94.6611V97.1348H130.521H139.105V94.6611V92.1875H130.521H121.936V94.6611Z" fill="white"/>
<path d="M119.316 106.913C118.473 107.96 117.89 108.921 118.036 109.037C118.181 109.153 121.499 111.918 125.399 115.177L132.529 121.085L134.071 119.368C134.915 118.437 135.613 117.564 135.613 117.447C135.613 117.273 123.944 107.407 121.324 105.37C120.946 105.05 120.626 105.283 119.316 106.913Z" fill="white"/>
<path d="M72.4629 112.995V116.633H74.9365H77.4102V112.995V109.357H74.9365H72.4629V112.995Z" fill="white"/>
<path d="M107.094 120.416V129.146H109.567H112.041L111.983 120.474L111.896 111.831L109.509 111.743L107.094 111.656V120.416Z" fill="white"/>
</svg>
