<svg width="132" height="147" viewBox="0 0 132 147" fill="none" xmlns="http://www.w3.org/2000/svg">
<path d="M96.1227 0.332758C91.8413 1.13731 87.7898 2.8039 84.3704 5.10263L82.7613 6.22326L45.1483 6.28073L7.56402 6.36693L5.75377 7.34389C3.5125 8.55073 1.61605 10.6196 0.754026 12.7746L0.0931399 14.4125L0.00693747 67.8293C-0.0217967 103.115 0.0356716 121.792 0.236811 122.855C0.868962 126.246 2.88035 128.918 5.92617 130.412L7.82263 131.361L13.6269 131.447L19.4025 131.533L19.5749 135.067C19.8048 140.239 20.9541 142.825 24 145.009C27.0458 147.164 24.4022 147.049 68.4804 146.963L107.846 146.877L109.484 146.101C112.587 144.664 114.857 141.676 115.49 138.285C115.662 137.366 115.719 128.573 115.691 116.16L115.604 95.529L114.656 94.6957C113.478 93.6326 112.099 93.5751 110.95 94.5521L110.145 95.2417L110.001 116.62L109.858 137.969L109.197 139.033C108.823 139.636 108.047 140.326 107.3 140.67C106.093 141.274 105.95 141.274 67.6759 141.274C25.6378 141.274 28.1089 141.389 26.586 139.578C25.5516 138.343 25.3792 137.596 25.3792 134.378V131.648L56.8431 131.504L88.307 131.361L90.2322 130.412C93.3355 128.889 95.3756 126.102 95.9503 122.625C96.094 121.735 96.2089 107.655 96.2089 90.558V60.0998L101.036 60.0711C104.542 60.0711 106.352 59.9274 107.789 59.5826C108.881 59.324 109.8 59.0941 109.886 59.0941C109.944 59.0941 110.001 61.9388 110.001 65.3869V71.6797L110.748 72.5704C111.352 73.2888 111.697 73.4612 112.645 73.4612C115.518 73.4612 115.748 72.7428 115.748 63.7778V56.6517L118.018 55.1288C122.328 52.2841 126.38 47.5717 128.535 42.888C135.488 27.8601 129.311 10.3897 114.455 3.03377C110.461 1.05111 106.812 0.160353 102.099 0.0166826C99.5708 -0.0407857 97.6456 0.0454168 96.1227 0.332758ZM107.501 6.48187C114.398 8.29212 120.259 13.2344 123.363 19.8145C125.001 23.2339 125.575 25.9349 125.575 30.0726C125.575 34.2103 125.001 36.9113 123.363 40.3882C117.702 52.3128 103.881 57.6287 91.7551 52.5715C87.7036 50.8761 83.1349 47.0545 80.7499 43.3478C75.9801 35.8482 75.6352 25.9062 79.8879 18.2916C83.3073 12.1712 89.3414 7.6887 96.1802 6.19453C99.3697 5.50491 104.254 5.61984 107.501 6.48187ZM76.957 12.085C76.957 12.1712 76.5547 12.8034 76.095 13.5217C73.7388 17.0273 71.7561 22.4581 71.2964 26.7682L71.0665 28.7796L46.2115 28.837C28.0802 28.8945 21.184 29.0094 20.7243 29.2393C19.3738 29.9577 19.2014 30.9921 19.2014 37.7446C19.2014 44.6121 19.4025 45.6178 20.9254 46.3649C21.8162 46.8246 73.8825 46.9108 75.0318 46.4798C75.6927 46.2212 75.8364 46.3361 76.526 47.3706C78.8535 50.8761 84.3417 55.4736 88.6806 57.485L90.4621 58.347L90.4046 90.3856L90.3184 122.453L89.6288 123.545C89.284 124.148 88.4794 124.867 87.8473 125.183C86.7841 125.757 85.9795 125.757 48.0792 125.757C10.1788 125.757 9.37427 125.757 8.31111 125.183C7.67896 124.867 6.8744 124.148 6.52959 123.545L5.83997 122.453L5.75377 69.4671C5.72504 34.354 5.7825 16.1365 5.98364 15.4182C6.35719 14.039 7.16174 13.0333 8.33984 12.4586C9.20187 12.0276 12.5063 11.9701 43.1369 11.9701C61.7279 11.9701 76.957 12.0276 76.957 12.085ZM71.1527 37.7446L71.0665 40.8479L48.0217 40.9341L24.9482 40.9916V37.8308V34.6701H48.0792H71.2389L71.1527 37.7446Z" fill="white"/>
<path d="M99.3409 15.1025C97.0996 17.3725 99.5707 20.993 102.444 19.6138C104.312 18.723 104.628 16.3381 103.048 14.9876C101.841 13.9819 100.433 14.0106 99.3409 15.1025Z" fill="white"/>
<path d="M100.059 23.7512C98.5078 24.3546 98.5078 24.4695 98.5078 36.1931V47.0833L99.3411 47.9166C101.008 49.5545 103.68 48.6637 104.111 46.3362C104.197 45.8478 104.255 40.8767 104.197 35.3023L104.111 25.1304L103.163 24.2971C102.215 23.4351 101.238 23.2627 100.059 23.7512Z" fill="white"/>
<path d="M20.2642 57.5139C19.2872 58.4909 19.1148 59.4391 19.6033 60.6747C20.4366 62.6286 19.1435 62.5424 48.1363 62.5424C72.3879 62.5424 74.2844 62.5137 75.2326 62.0252C76.9567 61.1632 77.3015 58.9219 75.8935 57.5139L75.1464 56.7956H48.0788H21.0113L20.2642 57.5139Z" fill="white"/>
<path d="M21.0118 70.5877C20.0923 70.9612 19.374 72.2255 19.4027 73.4036C19.4314 74.1795 19.6613 74.6392 20.3222 75.2426L21.2129 76.0472H48.0219C77.7905 76.0472 75.6929 76.1909 76.5837 74.122C76.9285 73.2312 76.9285 73.0301 76.4687 72.0819C76.1814 71.5072 75.6354 70.875 75.2332 70.6739C74.6872 70.3866 68.5956 70.3003 48.0794 70.3291C33.5112 70.3291 21.3566 70.444 21.0118 70.5877Z" fill="white"/>
<path d="M21.2125 84.1792C19.8045 84.6676 19.0287 86.248 19.4884 87.6847C20.1493 89.6961 18.1667 89.5524 48.0789 89.5524C73.25 89.5524 75.1465 89.495 75.7212 89.0352C77.1004 87.9721 77.043 85.386 75.6063 84.4665C74.8879 83.978 73.0489 83.9493 48.5099 83.8918C28.6259 83.8343 21.9596 83.9205 21.2125 84.1792Z" fill="white"/>
<path d="M20.3222 98.4026C19.6613 99.0061 19.4314 99.4658 19.4027 100.242C19.374 101.448 20.0923 102.684 21.098 103.058C22.2761 103.517 74.3424 103.431 75.2332 102.971C75.6354 102.77 76.1814 102.138 76.4687 101.563C76.9285 100.615 76.9285 100.414 76.5837 99.5233C75.6929 97.4544 77.7905 97.5981 48.0219 97.5981H21.2129L20.3222 98.4026Z" fill="white"/>
<path d="M110.749 81.8229C110.26 82.3688 110.001 83.0584 110.001 83.6619C110.001 84.2653 110.26 84.9549 110.749 85.5008C111.352 86.2192 111.697 86.3916 112.645 86.3916C114.168 86.3916 114.858 85.9893 115.346 84.7538C115.691 83.9779 115.72 83.5469 115.461 82.7711C115.03 81.5068 114.168 80.9321 112.702 80.9321C111.697 80.9321 111.352 81.0758 110.749 81.8229Z" fill="white"/>
</svg>
